<svg xmlns="http://www.w3.org/2000/svg" width="249" height="83.312" viewBox="0 0 249 83.312"><defs><style>.a{fill:#243746;}.b{fill:#eb0045;}</style></defs><path class="a" d="M23.07,15.468a8.257,8.257,0,0,1-8.09,8.387A8.257,8.257,0,0,1,6.87,15.468,8.257,8.257,0,0,1,14.979,7.1a8.239,8.239,0,0,1,8.09,8.368Z" transform="translate(5.82 6.045)"/><path class="b" d="M.58,13.7A25.753,25.753,0,0,1,4.153,6.09a18.754,18.754,0,0,0,1.74,12.793,39.73,39.73,0,0,0,4.388,6.683c3.147,3.7,10.349,9,13.5,11.645h0l8.5,6.813s9.942,7.609,12.608,16.237a21.439,21.439,0,0,1,0,10.22,21.569,21.569,0,0,1-3.943,7.646,17.273,17.273,0,0,0-1.314-12.719,42.044,42.044,0,0,0-4.462-6.961A83.627,83.627,0,0,0,24.7,49.282h0l-2.962-2.259-1.5-1.092c-2.3-1.648-6.813-5.276-6.813-5.276S3.375,32.546.709,23.993A21.42,21.42,0,0,1,.58,13.7Z" transform="translate(-0.015 5.185)"/><path class="a" d="M23.936,18.2a16.366,16.366,0,0,0,.778-5.239c0-2.629-.685-3.962-3.2-6.387S19.16,4.462,18.382,3.166A7.128,7.128,0,0,1,17.7,0,8.479,8.479,0,0,0,16.29,4.665a6.517,6.517,0,0,0,2.888,4.962A17.625,17.625,0,0,1,22.7,13.089,10.756,10.756,0,0,1,23.936,18.2Z" transform="translate(13.841 0)"/><path class="a" d="M29.761,7.1s.37,5.369-3.943,12.774C21.8,26.854,11.34,32.927,11.34,32.927l6.646,5.462A43.729,43.729,0,0,0,29.095,26.132a22.216,22.216,0,0,0,2.777-10.793A20.846,20.846,0,0,0,29.761,7.1Z" transform="translate(9.627 6.045)"/><path class="a" d="M16.12,30.277,9.473,25.13a22.217,22.217,0,0,0-4.554,8.109,23.92,23.92,0,0,0-.944,7.405A32.51,32.51,0,0,0,5.623,49.4,11.219,11.219,0,0,1,6.1,44.643a28.067,28.067,0,0,1,2.462-5.554,55.726,55.726,0,0,1,7.554-8.813Z" transform="translate(3.347 21.395)"/><path class="a" d="M12.931,53.99a17.662,17.662,0,0,0,1.037-6.11,8.368,8.368,0,0,0-3.11-6.165c-2.351-2.351-3.11-3.184-3.462-4.3a11.108,11.108,0,0,1-.537-2.981s-3.055,5.795-.8,9.553a37.676,37.676,0,0,0,4.74,6.295A16,16,0,0,1,12.931,53.99Z" transform="translate(4.425 29.321)"/><path class="a" d="M54.2,35.161c0,5.425-4.425,8.961-9.886,8.961H31.45V13.5H43.428c5.35,0,9.683,3.444,9.683,8.738a7.683,7.683,0,0,1-2.684,6A7.924,7.924,0,0,1,54.2,35.161ZM38.448,19.98v5.554h4.98a2.722,2.722,0,0,0,0-5.425Zm8.831,14.644A2.777,2.777,0,0,0,44.391,31.7H38.448v5.869h5.869a2.777,2.777,0,0,0,2.962-2.944Z" transform="translate(26.748 11.494)"/><path class="a" d="M54.058,13.5V44.048h-7V13.5Z" transform="translate(40.038 11.494)"/><path class="a" d="M54.09,29.109a15.811,15.811,0,1,1,4.637,11.3,15.94,15.94,0,0,1-4.637-11.3Zm24.864,0a8.924,8.924,0,1,0-8.924,8.924A8.924,8.924,0,0,0,78.954,29.109Z" transform="translate(46.023 11.196)"/><path class="a" d="M96.9,24A10.534,10.534,0,0,1,86.16,34.5H81.568v9.553h-7V13.5H86.16A10.516,10.516,0,0,1,96.9,24Zm-7.017,0a3.7,3.7,0,0,0-3.7-3.943h-4.61v7.887H86.16A3.7,3.7,0,0,0,89.881,24Z" transform="translate(63.459 11.492)"/><path class="a" d="M106.969,39.308H95.6l-1.537,4.74H86.4L96.768,13.5h8.924L116.17,44.048h-7.665Zm-2.092-6.554L101.285,21.5,97.693,32.754Z" transform="translate(73.531 11.494)"/><path class="a" d="M115.231,34.05H111.9v10h-7V13.5h12.256a10.46,10.46,0,0,1,10.5,10.5,10.127,10.127,0,0,1-5.554,8.887l6.443,11.164h-7.535Zm-3.332-6.11h5.258a3.7,3.7,0,0,0,3.5-3.943,3.7,3.7,0,0,0-3.5-4.017H111.9Z" transform="translate(89.281 11.493)"/><path class="a" d="M137.661,43.98l-7.072-12.423-2.573,2.962V43.98H120.61V13.58h7.405V24.373l8.831-10.793h9.146L135.606,25.91l10.738,18.143Z" transform="translate(102.656 11.562)"/></svg>